%TF.GenerationSoftware,KiCad,Pcbnew,9.0.0*%
%TF.CreationDate,2025-04-02T21:20:57+05:30*%
%TF.ProjectId,Smart_Energy_Saving_System,536d6172-745f-4456-9e65-7267795f5361,rev?*%
%TF.SameCoordinates,Original*%
%TF.FileFunction,Copper,L1,Top*%
%TF.FilePolarity,Positive*%
%FSLAX46Y46*%
G04 Gerber Fmt 4.6, Leading zero omitted, Abs format (unit mm)*
G04 Created by KiCad (PCBNEW 9.0.0) date 2025-04-02 21:20:57*
%MOMM*%
%LPD*%
G01*
G04 APERTURE LIST*
G04 Aperture macros list*
%AMRoundRect*
0 Rectangle with rounded corners*
0 $1 Rounding radius*
0 $2 $3 $4 $5 $6 $7 $8 $9 X,Y pos of 4 corners*
0 Add a 4 corners polygon primitive as box body*
4,1,4,$2,$3,$4,$5,$6,$7,$8,$9,$2,$3,0*
0 Add four circle primitives for the rounded corners*
1,1,$1+$1,$2,$3*
1,1,$1+$1,$4,$5*
1,1,$1+$1,$6,$7*
1,1,$1+$1,$8,$9*
0 Add four rect primitives between the rounded corners*
20,1,$1+$1,$2,$3,$4,$5,0*
20,1,$1+$1,$4,$5,$6,$7,0*
20,1,$1+$1,$6,$7,$8,$9,0*
20,1,$1+$1,$8,$9,$2,$3,0*%
G04 Aperture macros list end*
%TA.AperFunction,Conductor*%
%ADD10C,0.200000*%
%TD*%
%TA.AperFunction,SMDPad,CuDef*%
%ADD11R,1.050000X1.050000*%
%TD*%
%TA.AperFunction,HeatsinkPad*%
%ADD12C,0.600000*%
%TD*%
%TA.AperFunction,HeatsinkPad*%
%ADD13R,4.200000X4.200000*%
%TD*%
%TA.AperFunction,SMDPad,CuDef*%
%ADD14R,1.500000X0.900000*%
%TD*%
%TA.AperFunction,SMDPad,CuDef*%
%ADD15R,0.900000X1.500000*%
%TD*%
%TA.AperFunction,ComponentPad*%
%ADD16R,1.500000X1.500000*%
%TD*%
%TA.AperFunction,ComponentPad*%
%ADD17C,1.500000*%
%TD*%
%TA.AperFunction,SMDPad,CuDef*%
%ADD18R,3.000000X1.000000*%
%TD*%
%TA.AperFunction,SMDPad,CuDef*%
%ADD19RoundRect,0.100000X-0.130000X-0.100000X0.130000X-0.100000X0.130000X0.100000X-0.130000X0.100000X0*%
%TD*%
%TA.AperFunction,ComponentPad*%
%ADD20C,1.600000*%
%TD*%
%TA.AperFunction,ComponentPad*%
%ADD21R,1.905000X2.000000*%
%TD*%
%TA.AperFunction,ComponentPad*%
%ADD22O,1.905000X2.000000*%
%TD*%
%TA.AperFunction,ComponentPad*%
%ADD23RoundRect,0.250000X-0.620000X-0.845000X0.620000X-0.845000X0.620000X0.845000X-0.620000X0.845000X0*%
%TD*%
%TA.AperFunction,ComponentPad*%
%ADD24O,1.740000X2.190000*%
%TD*%
%TA.AperFunction,SMDPad,CuDef*%
%ADD25R,0.500000X3.300000*%
%TD*%
%TA.AperFunction,SMDPad,CuDef*%
%ADD26R,1.300000X3.300000*%
%TD*%
%TA.AperFunction,ComponentPad*%
%ADD27R,1.050000X1.500000*%
%TD*%
%TA.AperFunction,ComponentPad*%
%ADD28O,1.050000X1.500000*%
%TD*%
%TA.AperFunction,ViaPad*%
%ADD29C,0.600000*%
%TD*%
G04 APERTURE END LIST*
D10*
%TO.N,GND*%
X172000000Y-66500000D02*
X175000000Y-73500000D01*
%TO.N,/pir*%
X133500000Y-88500000D02*
X130430000Y-112500000D01*
%TO.N,GND*%
X139000000Y-76000000D02*
X146500000Y-70500000D01*
X128000000Y-112000000D02*
X132000000Y-88000000D01*
X172000000Y-66500000D02*
X175500000Y-50500000D01*
X132000000Y-88000000D02*
X135500000Y-79500000D01*
%TD*%
D11*
%TO.P,U1,39,GND*%
%TO.N,GND*%
X138795000Y-79215000D03*
D12*
X138795000Y-78452500D03*
D11*
X138795000Y-77690000D03*
D12*
X138795000Y-76927500D03*
D11*
X138795000Y-76165000D03*
D12*
X138032500Y-79215000D03*
X138032500Y-77690000D03*
X138032500Y-76165000D03*
D11*
X137270000Y-79215000D03*
D12*
X137270000Y-78452500D03*
D13*
X137270000Y-77690000D03*
D11*
X137270000Y-77690000D03*
D12*
X137270000Y-76927500D03*
D11*
X137270000Y-76165000D03*
D12*
X136507500Y-79215000D03*
X136507500Y-77690000D03*
X136507500Y-76165000D03*
D11*
X135745000Y-79215000D03*
D12*
X135745000Y-78452500D03*
D11*
X135745000Y-77690000D03*
D12*
X135745000Y-76927500D03*
D11*
X135745000Y-76165000D03*
D14*
%TO.P,U1,38,GND*%
X146700000Y-70350000D03*
%TO.P,U1,37,IO23*%
%TO.N,unconnected-(U1-IO23-Pad37)*%
X146700000Y-71620000D03*
%TO.P,U1,36,IO22*%
%TO.N,unconnected-(U1-IO22-Pad36)*%
X146700000Y-72890000D03*
%TO.P,U1,35,TXD0/IO1*%
%TO.N,unconnected-(U1-TXD0{slash}IO1-Pad35)*%
X146700000Y-74160000D03*
%TO.P,U1,34,RXD0/IO3*%
%TO.N,unconnected-(U1-RXD0{slash}IO3-Pad34)*%
X146700000Y-75430000D03*
%TO.P,U1,33,IO21*%
%TO.N,unconnected-(U1-IO21-Pad33)*%
X146700000Y-76700000D03*
%TO.P,U1,32,NC*%
%TO.N,unconnected-(U1-NC-Pad32)*%
X146700000Y-77970000D03*
%TO.P,U1,31,IO19*%
%TO.N,unconnected-(U1-IO19-Pad31)*%
X146700000Y-79240000D03*
%TO.P,U1,30,IO18*%
%TO.N,unconnected-(U1-IO18-Pad30)*%
X146700000Y-80510000D03*
%TO.P,U1,29,IO5*%
%TO.N,/bjt_b*%
X146700000Y-81780000D03*
%TO.P,U1,28,IO17*%
%TO.N,unconnected-(U1-IO17-Pad28)*%
X146700000Y-83050000D03*
%TO.P,U1,27,IO16*%
%TO.N,unconnected-(U1-IO16-Pad27)*%
X146700000Y-84320000D03*
%TO.P,U1,26,IO4*%
%TO.N,/temp*%
X146700000Y-85590000D03*
%TO.P,U1,25,IO0*%
%TO.N,unconnected-(U1-IO0-Pad25)*%
X146700000Y-86860000D03*
D15*
%TO.P,U1,24,IO2*%
%TO.N,/led*%
X143670000Y-88110000D03*
%TO.P,U1,23,IO15*%
%TO.N,unconnected-(U1-IO15-Pad23)*%
X142400000Y-88110000D03*
%TO.P,U1,22,SDI/SD1*%
%TO.N,unconnected-(U1-SDI{slash}SD1-Pad22)*%
X141130000Y-88110000D03*
%TO.P,U1,21,SDO/SD0*%
%TO.N,unconnected-(U1-SDO{slash}SD0-Pad21)*%
X139860000Y-88110000D03*
%TO.P,U1,20,SCK/CLK*%
%TO.N,unconnected-(U1-SCK{slash}CLK-Pad20)*%
X138590000Y-88110000D03*
%TO.P,U1,19,SCS/CMD*%
%TO.N,unconnected-(U1-SCS{slash}CMD-Pad19)*%
X137320000Y-88110000D03*
%TO.P,U1,18,SWP/SD3*%
%TO.N,unconnected-(U1-SWP{slash}SD3-Pad18)*%
X136050000Y-88110000D03*
%TO.P,U1,17,SHD/SD2*%
%TO.N,unconnected-(U1-SHD{slash}SD2-Pad17)*%
X134780000Y-88110000D03*
%TO.P,U1,16,IO13*%
%TO.N,/pir*%
X133510000Y-88110000D03*
%TO.P,U1,15,GND*%
%TO.N,GND*%
X132240000Y-88110000D03*
D14*
%TO.P,U1,14,IO12*%
%TO.N,unconnected-(U1-IO12-Pad14)*%
X129200000Y-86860000D03*
%TO.P,U1,13,IO14*%
%TO.N,unconnected-(U1-IO14-Pad13)*%
X129200000Y-85590000D03*
%TO.P,U1,12,IO27*%
%TO.N,unconnected-(U1-IO27-Pad12)*%
X129200000Y-84320000D03*
%TO.P,U1,11,IO26*%
%TO.N,unconnected-(U1-IO26-Pad11)*%
X129200000Y-83050000D03*
%TO.P,U1,10,IO25*%
%TO.N,unconnected-(U1-IO25-Pad10)*%
X129200000Y-81780000D03*
%TO.P,U1,9,IO33*%
%TO.N,unconnected-(U1-IO33-Pad9)*%
X129200000Y-80510000D03*
%TO.P,U1,8,IO32*%
%TO.N,unconnected-(U1-IO32-Pad8)*%
X129200000Y-79240000D03*
%TO.P,U1,7,IO35*%
%TO.N,unconnected-(U1-IO35-Pad7)*%
X129200000Y-77970000D03*
%TO.P,U1,6,IO34*%
%TO.N,unconnected-(U1-IO34-Pad6)*%
X129200000Y-76700000D03*
%TO.P,U1,5,SENSOR_VN*%
%TO.N,unconnected-(U1-SENSOR_VN-Pad5)*%
X129200000Y-75430000D03*
%TO.P,U1,4,SENSOR_VP*%
%TO.N,unconnected-(U1-SENSOR_VP-Pad4)*%
X129200000Y-74160000D03*
%TO.P,U1,3,EN*%
%TO.N,unconnected-(U1-EN-Pad3)*%
X129200000Y-72890000D03*
%TO.P,U1,2,VDD*%
%TO.N,/con_in*%
X129200000Y-71620000D03*
%TO.P,U1,1,GND*%
%TO.N,GND*%
X129200000Y-70350000D03*
%TD*%
D16*
%TO.P,U2,1,VDD*%
%TO.N,+3.3V*%
X166500000Y-87000000D03*
D17*
%TO.P,U2,2,DATA*%
%TO.N,/temp*%
X166500000Y-89540000D03*
%TO.P,U2,3,NC*%
%TO.N,unconnected-(U2-NC-Pad3)*%
X166500000Y-92080000D03*
%TO.P,U2,4,GND*%
%TO.N,GND*%
X166500000Y-94620000D03*
%TD*%
D18*
%TO.P,K1,1*%
%TO.N,N/C*%
X151000000Y-81000000D03*
%TO.P,K1,2*%
X151000000Y-83540000D03*
%TO.P,K1,3*%
X151000000Y-86080000D03*
%TO.P,K1,4*%
X151000000Y-88620000D03*
%TO.P,K1,5*%
X151000000Y-91160000D03*
%TO.P,K1,6*%
X160560000Y-91160000D03*
%TO.P,K1,7*%
X160560000Y-88620000D03*
%TO.P,K1,8*%
X160560000Y-86080000D03*
%TO.P,K1,9*%
X160560000Y-83540000D03*
%TO.P,K1,10*%
X160560000Y-81000000D03*
%TD*%
D19*
%TO.P,R3,1*%
%TO.N,Net-(D2-A)*%
X172835000Y-80000000D03*
%TO.P,R3,2*%
%TO.N,/led*%
X173475000Y-80000000D03*
%TD*%
%TO.P,R2,1*%
%TO.N,GND*%
X174860000Y-73500000D03*
%TO.P,R2,2*%
%TO.N,Net-(R1-Pad2)*%
X175500000Y-73500000D03*
%TD*%
D20*
%TO.P,R1,1*%
%TO.N,+3.3V*%
X169000000Y-109500000D03*
%TO.P,R1,2*%
%TO.N,Net-(R1-Pad2)*%
X176600000Y-109500000D03*
%TD*%
D21*
%TO.P,U3,1,VI*%
%TO.N,+12V*%
X160000000Y-109445000D03*
D22*
%TO.P,U3,2,GND*%
%TO.N,GND*%
X157460000Y-109445000D03*
%TO.P,U3,3,VO*%
%TO.N,/con_in*%
X154920000Y-109445000D03*
%TD*%
D19*
%TO.P,D2,1,K*%
%TO.N,GND*%
X172025000Y-66500000D03*
%TO.P,D2,2,A*%
%TO.N,Net-(D2-A)*%
X172665000Y-66500000D03*
%TD*%
D23*
%TO.P,J1,1,In1*%
%TO.N,/neutral*%
X170420000Y-50500000D03*
D24*
%TO.P,J1,2,In2*%
%TO.N,/live*%
X172960000Y-50500000D03*
%TO.P,J1,3,Ext*%
%TO.N,GND*%
X175500000Y-50500000D03*
%TD*%
D25*
%TO.P,LA1,1,-*%
%TO.N,/neutral*%
X175100000Y-60000000D03*
%TO.P,LA1,2,+*%
%TO.N,/lamp*%
X177900000Y-60000000D03*
D26*
%TO.P,LA1,3*%
%TO.N,N/C*%
X176500000Y-60000000D03*
%TD*%
D27*
%TO.P,Q1,1,C*%
%TO.N,/bjt_c*%
X164730000Y-70860000D03*
D28*
%TO.P,Q1,2,B*%
%TO.N,/bjt_b*%
X166000000Y-70860000D03*
%TO.P,Q1,3,E*%
%TO.N,GND*%
X167270000Y-70860000D03*
%TD*%
D17*
%TO.P,HC-SR501,1,GND*%
%TO.N,GND*%
X127930000Y-112140000D03*
%TO.P,HC-SR501,2,DATA*%
%TO.N,/pir*%
X130430000Y-112140000D03*
%TO.P,HC-SR501,3,VCC*%
%TO.N,+3.3V*%
X132930000Y-112140000D03*
%TD*%
D29*
%TO.N,Net-(D2-A)*%
X177701000Y-76000000D03*
X174000000Y-78500000D03*
%TO.N,GND*%
X171000000Y-71000000D03*
X162500000Y-71000000D03*
%TO.N,/led*%
X173000000Y-83500000D03*
X160500000Y-96500000D03*
%TD*%
D10*
%TO.N,Net-(D2-A)*%
X172835000Y-80000000D02*
X172835000Y-79665000D01*
X172835000Y-79665000D02*
X174000000Y-78500000D01*
X172665000Y-66500000D02*
X177701000Y-71536000D01*
X177701000Y-71536000D02*
X177701000Y-76000000D01*
%TO.N,GND*%
X170500000Y-71000000D02*
X170360000Y-70860000D01*
X146700000Y-70350000D02*
X161850000Y-70350000D01*
X130056427Y-70295833D02*
X135831685Y-76071091D01*
X146619957Y-69809000D02*
X166630824Y-69809000D01*
X161301000Y-89421000D02*
X147459000Y-89421000D01*
X167659203Y-71263788D02*
X167263195Y-71257000D01*
X129254167Y-70295833D02*
X130056427Y-70295833D01*
X147459000Y-89421000D02*
X145649000Y-87611000D01*
X171000000Y-71000000D02*
X170500000Y-71000000D01*
X129200000Y-70350000D02*
X129254167Y-70295833D01*
X161850000Y-70350000D02*
X162500000Y-71000000D01*
X166630824Y-69809000D02*
X167276941Y-70455117D01*
X157460000Y-109445000D02*
X157460000Y-103660000D01*
X169939824Y-66500000D02*
X166630824Y-69809000D01*
X170360000Y-70860000D02*
X167270000Y-70860000D01*
X166500000Y-94620000D02*
X161301000Y-89421000D01*
X145649000Y-70779957D02*
X146619957Y-69809000D01*
X172025000Y-66500000D02*
X169939824Y-66500000D01*
X145649000Y-87611000D02*
X145649000Y-70779957D01*
X157460000Y-103660000D02*
X166500000Y-94620000D01*
%TO.N,+3.3V*%
X166802831Y-112140000D02*
X169044284Y-109898547D01*
X132930000Y-112140000D02*
X166802831Y-112140000D01*
X169000000Y-109500000D02*
X169000000Y-89500000D01*
X169000000Y-89500000D02*
X166500000Y-87000000D01*
%TO.N,/neutral*%
X176671000Y-56927000D02*
X175100000Y-58498000D01*
X170420000Y-50500000D02*
X171816000Y-49104000D01*
X176671000Y-49789956D02*
X176671000Y-56927000D01*
X175100000Y-58498000D02*
X175100000Y-60000000D01*
X171816000Y-49104000D02*
X175985044Y-49104000D01*
X175985044Y-49104000D02*
X176671000Y-49789956D01*
%TO.N,/bjt_b*%
X165556000Y-71911000D02*
X166000000Y-71467000D01*
X166000000Y-71467000D02*
X166000000Y-71235345D01*
X157589000Y-71911000D02*
X165556000Y-71911000D01*
X147720000Y-81780000D02*
X157589000Y-71911000D01*
X146700000Y-81780000D02*
X147720000Y-81780000D01*
%TO.N,Net-(R1-Pad2)*%
X175500000Y-108400000D02*
X176600000Y-109500000D01*
X175500000Y-73500000D02*
X175500000Y-108400000D01*
%TO.N,/led*%
X173000000Y-83500000D02*
X173475000Y-83025000D01*
X173475000Y-83025000D02*
X173475000Y-80000000D01*
X152060000Y-96500000D02*
X160500000Y-96500000D01*
X143670000Y-88110000D02*
X152060000Y-96500000D01*
%TO.N,/temp*%
X146700000Y-85590000D02*
X147908000Y-85590000D01*
X164779000Y-87819000D02*
X166363599Y-89403599D01*
X147908000Y-85590000D02*
X150137000Y-87819000D01*
X150137000Y-87819000D02*
X164779000Y-87819000D01*
X166363599Y-89403599D02*
X166380233Y-89553307D01*
%TO.N,/con_in*%
X128900000Y-71620000D02*
X127079000Y-73441000D01*
X129200000Y-71620000D02*
X128900000Y-71620000D01*
X127079000Y-73441000D02*
X127079000Y-112492496D01*
X127577504Y-112991000D02*
X130782496Y-112991000D01*
X134084387Y-109689109D02*
X154919998Y-109689109D01*
X127079000Y-112492496D02*
X127577504Y-112991000D01*
X130782496Y-112991000D02*
X134084387Y-109689109D01*
%TD*%
M02*
