%TF.GenerationSoftware,KiCad,Pcbnew,9.0.0*%
%TF.CreationDate,2025-04-02T21:20:57+05:30*%
%TF.ProjectId,Smart_Energy_Saving_System,536d6172-745f-4456-9e65-7267795f5361,rev?*%
%TF.SameCoordinates,Original*%
%TF.FileFunction,Paste,Top*%
%TF.FilePolarity,Positive*%
%FSLAX46Y46*%
G04 Gerber Fmt 4.6, Leading zero omitted, Abs format (unit mm)*
G04 Created by KiCad (PCBNEW 9.0.0) date 2025-04-02 21:20:57*
%MOMM*%
%LPD*%
G01*
G04 APERTURE LIST*
G04 Aperture macros list*
%AMRoundRect*
0 Rectangle with rounded corners*
0 $1 Rounding radius*
0 $2 $3 $4 $5 $6 $7 $8 $9 X,Y pos of 4 corners*
0 Add a 4 corners polygon primitive as box body*
4,1,4,$2,$3,$4,$5,$6,$7,$8,$9,$2,$3,0*
0 Add four circle primitives for the rounded corners*
1,1,$1+$1,$2,$3*
1,1,$1+$1,$4,$5*
1,1,$1+$1,$6,$7*
1,1,$1+$1,$8,$9*
0 Add four rect primitives between the rounded corners*
20,1,$1+$1,$2,$3,$4,$5,0*
20,1,$1+$1,$4,$5,$6,$7,0*
20,1,$1+$1,$6,$7,$8,$9,0*
20,1,$1+$1,$8,$9,$2,$3,0*%
G04 Aperture macros list end*
%ADD10R,1.050000X1.050000*%
%ADD11R,1.500000X0.900000*%
%ADD12R,0.900000X1.500000*%
%ADD13R,3.000000X1.000000*%
%ADD14RoundRect,0.079500X-0.079500X-0.100500X0.079500X-0.100500X0.079500X0.100500X-0.079500X0.100500X0*%
%ADD15R,1.010000X0.750000*%
%ADD16R,0.500000X3.300000*%
G04 APERTURE END LIST*
D10*
%TO.C,U1*%
X138795000Y-79215000D03*
X138795000Y-77690000D03*
X138795000Y-76165000D03*
X137270000Y-79215000D03*
X137270000Y-77690000D03*
X137270000Y-76165000D03*
X135745000Y-79215000D03*
X135745000Y-77690000D03*
X135745000Y-76165000D03*
D11*
X146700000Y-70350000D03*
X146700000Y-71620000D03*
X146700000Y-72890000D03*
X146700000Y-74160000D03*
X146700000Y-75430000D03*
X146700000Y-76700000D03*
X146700000Y-77970000D03*
X146700000Y-79240000D03*
X146700000Y-80510000D03*
X146700000Y-81780000D03*
X146700000Y-83050000D03*
X146700000Y-84320000D03*
X146700000Y-85590000D03*
X146700000Y-86860000D03*
D12*
X143670000Y-88110000D03*
X142400000Y-88110000D03*
X141130000Y-88110000D03*
X139860000Y-88110000D03*
X138590000Y-88110000D03*
X137320000Y-88110000D03*
X136050000Y-88110000D03*
X134780000Y-88110000D03*
X133510000Y-88110000D03*
X132240000Y-88110000D03*
D11*
X129200000Y-86860000D03*
X129200000Y-85590000D03*
X129200000Y-84320000D03*
X129200000Y-83050000D03*
X129200000Y-81780000D03*
X129200000Y-80510000D03*
X129200000Y-79240000D03*
X129200000Y-77970000D03*
X129200000Y-76700000D03*
X129200000Y-75430000D03*
X129200000Y-74160000D03*
X129200000Y-72890000D03*
X129200000Y-71620000D03*
X129200000Y-70350000D03*
%TD*%
D13*
%TO.C,K1*%
X151000000Y-81000000D03*
X151000000Y-83540000D03*
X151000000Y-86080000D03*
X151000000Y-88620000D03*
X151000000Y-91160000D03*
X160560000Y-91160000D03*
X160560000Y-88620000D03*
X160560000Y-86080000D03*
X160560000Y-83540000D03*
X160560000Y-81000000D03*
%TD*%
D14*
%TO.C,R3*%
X172810000Y-80000000D03*
X173500000Y-80000000D03*
%TD*%
%TO.C,R2*%
X174835000Y-73500000D03*
X175525000Y-73500000D03*
%TD*%
%TO.C,D2*%
X172000000Y-66500000D03*
X172690000Y-66500000D03*
%TD*%
D15*
%TO.C,LA1*%
X176500000Y-59000000D03*
X176500000Y-60000000D03*
X176500000Y-61000000D03*
D16*
X175100000Y-60000000D03*
X177900000Y-60000000D03*
%TD*%
M02*
