M48
; DRILL file {KiCad 9.0.0} date 2025-04-07T20:51:07+0530
; FORMAT={-:-/ absolute / metric / decimal}
; #@! TF.CreationDate,2025-04-07T20:51:07+05:30
; #@! TF.GenerationSoftware,Kicad,Pcbnew,9.0.0
; #@! TF.FileFunction,Plated,1,2,PTH
FMAT,2
METRIC
; #@! TA.AperFunction,Plated,PTH,ComponentDrill
T1C0.200
; #@! TA.AperFunction,Plated,PTH,ViaDrill
T2C0.300
; #@! TA.AperFunction,Plated,PTH,ComponentDrill
T3C0.750
; #@! TA.AperFunction,Plated,PTH,ComponentDrill
T4C0.800
; #@! TA.AperFunction,Plated,PTH,ComponentDrill
T5C0.900
; #@! TA.AperFunction,Plated,PTH,ComponentDrill
T6C1.100
; #@! TA.AperFunction,Plated,PTH,ComponentDrill
T7C1.190
%
G90
G05
T1
X135.745Y-76.927
X135.745Y-78.453
X136.507Y-76.165
X136.507Y-77.69
X136.507Y-79.215
X137.27Y-76.927
X137.27Y-78.453
X138.032Y-76.165
X138.032Y-77.69
X138.032Y-79.215
X138.795Y-76.927
X138.795Y-78.453
T2
X160.5Y-96.5
X162.5Y-71.0
X171.0Y-71.0
X173.0Y-83.5
X174.0Y-78.5
X177.701Y-76.0
T3
X164.73Y-70.86
X166.0Y-70.86
X167.27Y-70.86
T4
X166.5Y-87.0
X166.5Y-89.54
X166.5Y-92.08
X166.5Y-94.62
X169.0Y-109.5
X176.6Y-109.5
T5
X127.93Y-112.14
X130.43Y-112.14
X132.93Y-112.14
T6
X154.92Y-109.445
X157.46Y-109.445
X160.0Y-109.445
T7
X170.42Y-50.5
X172.96Y-50.5
X175.5Y-50.5
M30
