%TF.GenerationSoftware,KiCad,Pcbnew,9.0.0*%
%TF.CreationDate,2025-04-02T21:20:57+05:30*%
%TF.ProjectId,Smart_Energy_Saving_System,536d6172-745f-4456-9e65-7267795f5361,rev?*%
%TF.SameCoordinates,Original*%
%TF.FileFunction,Soldermask,Top*%
%TF.FilePolarity,Negative*%
%FSLAX46Y46*%
G04 Gerber Fmt 4.6, Leading zero omitted, Abs format (unit mm)*
G04 Created by KiCad (PCBNEW 9.0.0) date 2025-04-02 21:20:57*
%MOMM*%
%LPD*%
G01*
G04 APERTURE LIST*
G04 Aperture macros list*
%AMRoundRect*
0 Rectangle with rounded corners*
0 $1 Rounding radius*
0 $2 $3 $4 $5 $6 $7 $8 $9 X,Y pos of 4 corners*
0 Add a 4 corners polygon primitive as box body*
4,1,4,$2,$3,$4,$5,$6,$7,$8,$9,$2,$3,0*
0 Add four circle primitives for the rounded corners*
1,1,$1+$1,$2,$3*
1,1,$1+$1,$4,$5*
1,1,$1+$1,$6,$7*
1,1,$1+$1,$8,$9*
0 Add four rect primitives between the rounded corners*
20,1,$1+$1,$2,$3,$4,$5,0*
20,1,$1+$1,$4,$5,$6,$7,0*
20,1,$1+$1,$6,$7,$8,$9,0*
20,1,$1+$1,$8,$9,$2,$3,0*%
G04 Aperture macros list end*
%ADD10C,0.600000*%
%ADD11R,4.200000X4.200000*%
%ADD12R,1.500000X0.900000*%
%ADD13R,0.900000X1.500000*%
%ADD14R,1.500000X1.500000*%
%ADD15C,1.500000*%
%ADD16R,3.000000X1.000000*%
%ADD17RoundRect,0.100000X-0.130000X-0.100000X0.130000X-0.100000X0.130000X0.100000X-0.130000X0.100000X0*%
%ADD18C,1.600000*%
%ADD19R,1.905000X2.000000*%
%ADD20O,1.905000X2.000000*%
%ADD21RoundRect,0.250000X-0.620000X-0.845000X0.620000X-0.845000X0.620000X0.845000X-0.620000X0.845000X0*%
%ADD22O,1.740000X2.190000*%
%ADD23R,0.500000X3.300000*%
%ADD24R,1.300000X3.300000*%
%ADD25R,1.050000X1.500000*%
%ADD26O,1.050000X1.500000*%
%ADD27C,2.000000*%
G04 APERTURE END LIST*
D10*
%TO.C,U1*%
X138795000Y-78452500D03*
X138795000Y-76927500D03*
X138032500Y-79215000D03*
X138032500Y-77690000D03*
X138032500Y-76165000D03*
X137270000Y-78452500D03*
D11*
X137270000Y-77690000D03*
D10*
X137270000Y-76927500D03*
X136507500Y-79215000D03*
X136507500Y-77690000D03*
X136507500Y-76165000D03*
X135745000Y-78452500D03*
X135745000Y-76927500D03*
D12*
X146700000Y-70350000D03*
X146700000Y-71620000D03*
X146700000Y-72890000D03*
X146700000Y-74160000D03*
X146700000Y-75430000D03*
X146700000Y-76700000D03*
X146700000Y-77970000D03*
X146700000Y-79240000D03*
X146700000Y-80510000D03*
X146700000Y-81780000D03*
X146700000Y-83050000D03*
X146700000Y-84320000D03*
X146700000Y-85590000D03*
X146700000Y-86860000D03*
D13*
X143670000Y-88110000D03*
X142400000Y-88110000D03*
X141130000Y-88110000D03*
X139860000Y-88110000D03*
X138590000Y-88110000D03*
X137320000Y-88110000D03*
X136050000Y-88110000D03*
X134780000Y-88110000D03*
X133510000Y-88110000D03*
X132240000Y-88110000D03*
D12*
X129200000Y-86860000D03*
X129200000Y-85590000D03*
X129200000Y-84320000D03*
X129200000Y-83050000D03*
X129200000Y-81780000D03*
X129200000Y-80510000D03*
X129200000Y-79240000D03*
X129200000Y-77970000D03*
X129200000Y-76700000D03*
X129200000Y-75430000D03*
X129200000Y-74160000D03*
X129200000Y-72890000D03*
X129200000Y-71620000D03*
X129200000Y-70350000D03*
%TD*%
D14*
%TO.C,U2*%
X166500000Y-87000000D03*
D15*
X166500000Y-89540000D03*
X166500000Y-92080000D03*
X166500000Y-94620000D03*
%TD*%
D16*
%TO.C,K1*%
X151000000Y-81000000D03*
X151000000Y-83540000D03*
X151000000Y-86080000D03*
X151000000Y-88620000D03*
X151000000Y-91160000D03*
X160560000Y-91160000D03*
X160560000Y-88620000D03*
X160560000Y-86080000D03*
X160560000Y-83540000D03*
X160560000Y-81000000D03*
%TD*%
D17*
%TO.C,R3*%
X172835000Y-80000000D03*
X173475000Y-80000000D03*
%TD*%
%TO.C,R2*%
X174860000Y-73500000D03*
X175500000Y-73500000D03*
%TD*%
D18*
%TO.C,R1*%
X169000000Y-109500000D03*
X176600000Y-109500000D03*
%TD*%
D19*
%TO.C,U3*%
X160000000Y-109445000D03*
D20*
X157460000Y-109445000D03*
X154920000Y-109445000D03*
%TD*%
D17*
%TO.C,D2*%
X172025000Y-66500000D03*
X172665000Y-66500000D03*
%TD*%
D21*
%TO.C,J1*%
X170420000Y-50500000D03*
D22*
X172960000Y-50500000D03*
X175500000Y-50500000D03*
%TD*%
D23*
%TO.C,LA1*%
X175100000Y-60000000D03*
X177900000Y-60000000D03*
D24*
X176500000Y-60000000D03*
%TD*%
D25*
%TO.C,Q1*%
X164730000Y-70860000D03*
D26*
X166000000Y-70860000D03*
X167270000Y-70860000D03*
%TD*%
D27*
%TO.C,HC-SR501*%
X115430000Y-103140000D03*
X145430000Y-103140000D03*
D15*
X127930000Y-112140000D03*
X130430000Y-112140000D03*
X132930000Y-112140000D03*
%TD*%
M02*
