%TF.GenerationSoftware,KiCad,Pcbnew,9.0.0*%
%TF.CreationDate,2025-04-02T21:20:57+05:30*%
%TF.ProjectId,Smart_Energy_Saving_System,536d6172-745f-4456-9e65-7267795f5361,rev?*%
%TF.SameCoordinates,Original*%
%TF.FileFunction,Copper,L2,Bot*%
%TF.FilePolarity,Positive*%
%FSLAX46Y46*%
G04 Gerber Fmt 4.6, Leading zero omitted, Abs format (unit mm)*
G04 Created by KiCad (PCBNEW 9.0.0) date 2025-04-02 21:20:57*
%MOMM*%
%LPD*%
G01*
G04 APERTURE LIST*
G04 Aperture macros list*
%AMRoundRect*
0 Rectangle with rounded corners*
0 $1 Rounding radius*
0 $2 $3 $4 $5 $6 $7 $8 $9 X,Y pos of 4 corners*
0 Add a 4 corners polygon primitive as box body*
4,1,4,$2,$3,$4,$5,$6,$7,$8,$9,$2,$3,0*
0 Add four circle primitives for the rounded corners*
1,1,$1+$1,$2,$3*
1,1,$1+$1,$4,$5*
1,1,$1+$1,$6,$7*
1,1,$1+$1,$8,$9*
0 Add four rect primitives between the rounded corners*
20,1,$1+$1,$2,$3,$4,$5,0*
20,1,$1+$1,$4,$5,$6,$7,0*
20,1,$1+$1,$6,$7,$8,$9,0*
20,1,$1+$1,$8,$9,$2,$3,0*%
G04 Aperture macros list end*
%TA.AperFunction,HeatsinkPad*%
%ADD10C,0.600000*%
%TD*%
%TA.AperFunction,ComponentPad*%
%ADD11R,1.500000X1.500000*%
%TD*%
%TA.AperFunction,ComponentPad*%
%ADD12C,1.500000*%
%TD*%
%TA.AperFunction,ComponentPad*%
%ADD13C,1.600000*%
%TD*%
%TA.AperFunction,ComponentPad*%
%ADD14R,1.905000X2.000000*%
%TD*%
%TA.AperFunction,ComponentPad*%
%ADD15O,1.905000X2.000000*%
%TD*%
%TA.AperFunction,ComponentPad*%
%ADD16RoundRect,0.250000X-0.620000X-0.845000X0.620000X-0.845000X0.620000X0.845000X-0.620000X0.845000X0*%
%TD*%
%TA.AperFunction,ComponentPad*%
%ADD17O,1.740000X2.190000*%
%TD*%
%TA.AperFunction,ComponentPad*%
%ADD18R,1.050000X1.500000*%
%TD*%
%TA.AperFunction,ComponentPad*%
%ADD19O,1.050000X1.500000*%
%TD*%
%TA.AperFunction,ViaPad*%
%ADD20C,0.600000*%
%TD*%
%TA.AperFunction,Conductor*%
%ADD21C,0.200000*%
%TD*%
G04 APERTURE END LIST*
D10*
%TO.P,U1,39,GND*%
%TO.N,GND*%
X138795000Y-78452500D03*
X138795000Y-76927500D03*
X138032500Y-79215000D03*
X138032500Y-77690000D03*
X138032500Y-76165000D03*
X137270000Y-78452500D03*
X137270000Y-76927500D03*
X136507500Y-79215000D03*
X136507500Y-77690000D03*
X136507500Y-76165000D03*
X135745000Y-78452500D03*
X135745000Y-76927500D03*
%TD*%
D11*
%TO.P,U2,1,VDD*%
%TO.N,+3.3V*%
X166500000Y-87000000D03*
D12*
%TO.P,U2,2,DATA*%
%TO.N,/temp*%
X166500000Y-89540000D03*
%TO.P,U2,3,NC*%
%TO.N,unconnected-(U2-NC-Pad3)*%
X166500000Y-92080000D03*
%TO.P,U2,4,GND*%
%TO.N,GND*%
X166500000Y-94620000D03*
%TD*%
D13*
%TO.P,R1,1*%
%TO.N,+3.3V*%
X169000000Y-109500000D03*
%TO.P,R1,2*%
%TO.N,Net-(R1-Pad2)*%
X176600000Y-109500000D03*
%TD*%
D14*
%TO.P,U3,1,VI*%
%TO.N,+12V*%
X160000000Y-109445000D03*
D15*
%TO.P,U3,2,GND*%
%TO.N,GND*%
X157460000Y-109445000D03*
%TO.P,U3,3,VO*%
%TO.N,/con_in*%
X154920000Y-109445000D03*
%TD*%
D16*
%TO.P,J1,1,In1*%
%TO.N,/neutral*%
X170420000Y-50500000D03*
D17*
%TO.P,J1,2,In2*%
%TO.N,/live*%
X172960000Y-50500000D03*
%TO.P,J1,3,Ext*%
%TO.N,GND*%
X175500000Y-50500000D03*
%TD*%
D18*
%TO.P,Q1,1,C*%
%TO.N,/bjt_c*%
X164730000Y-70860000D03*
D19*
%TO.P,Q1,2,B*%
%TO.N,/bjt_b*%
X166000000Y-70860000D03*
%TO.P,Q1,3,E*%
%TO.N,GND*%
X167270000Y-70860000D03*
%TD*%
D12*
%TO.P,HC-SR501,1,GND*%
%TO.N,GND*%
X127930000Y-112140000D03*
%TO.P,HC-SR501,2,DATA*%
%TO.N,/pir*%
X130430000Y-112140000D03*
%TO.P,HC-SR501,3,VCC*%
%TO.N,+3.3V*%
X132930000Y-112140000D03*
%TD*%
D20*
%TO.N,Net-(D2-A)*%
X177701000Y-76000000D03*
X174000000Y-78500000D03*
%TO.N,GND*%
X171000000Y-71000000D03*
X162500000Y-71000000D03*
%TO.N,/led*%
X173000000Y-83500000D03*
X160500000Y-96500000D03*
%TD*%
D21*
%TO.N,Net-(D2-A)*%
X177701000Y-77299000D02*
X177000000Y-78000000D01*
X177000000Y-78000000D02*
X174500000Y-78000000D01*
X177701000Y-76000000D02*
X177701000Y-77299000D01*
X174500000Y-78000000D02*
X174000000Y-78500000D01*
%TO.N,GND*%
X163211000Y-71711000D02*
X170289000Y-71711000D01*
X170289000Y-71711000D02*
X171000000Y-71000000D01*
X162500000Y-71000000D02*
X163211000Y-71711000D01*
%TO.N,/led*%
X166409000Y-90591000D02*
X166935339Y-90591000D01*
X166935339Y-90591000D02*
X173000000Y-84526339D01*
X160500000Y-96500000D02*
X166409000Y-90591000D01*
X173000000Y-84526339D02*
X173000000Y-83500000D01*
%TD*%
M02*
